{
  "accessors": [
    {
      "bufferView": 2,
      "componentType": 5126,
      "count": 20579,
      "max": [
        3.0775949954986572,
        3.486104965209961,
        8.534357070922852
      ],
      "min": [
        -3.0775949954986572,
        -3.486104965209961,
        -8.534357070922852
      ],
      "type": "VEC3"
    },
    {
      "bufferView": 2,
      "byteOffset": 246948,
      "componentType": 5126,
      "count": 20579,
      "max": [
        0.9999513626098633,
        0.9999839067459106,
        0.9993343353271484
      ],
      "min": [
        -0.999937117099762,
        -0.9999924898147583,
        -0.9999982118606567
      ],
      "type": "VEC3"
    },
    {
      "bufferView": 3,
      "componentType": 5126,
      "count": 20579,
      "max": [
        0.9996445178985596,
        0.999372661113739,
        0.9999979734420776,
        1.0
      ],
      "min": [
        -0.9998876452445984,
        -0.9998395442962646,
        -0.9999980926513672,
        -1.0
      ],
      "type": "VEC4"
    },
    {
      "bufferView": 1,
      "componentType": 5126,
      "count": 20579,
      "max": [
        0.9995120167732239,
        0.9995120167732239
      ],
      "min": [
        0.0004879999905824661,
        0.0004879999905824661
      ],
      "type": "VEC2"
    },
    {
      "bufferView": 0,
      "componentType": 5125,
      "count": 105072,
      "type": "SCALAR"
    }
  ],
  "asset": {
    "extras": {
      "author": "Andrea Spognetta (Spogna) (https://sketchfab.com/spogna)",
      "license": "CC-BY-NC-4.0 (http://creativecommons.org/licenses/by-nc/4.0/)",
      "source": "https://sketchfab.com/3d-models/used-canguro-shoes-free-6002f2744c4c488e81a30d3807337bfa",
      "title": "Used Canguro shoes  ▆ ▇ █ FREE █ ▇ ▆"
    },
    "generator": "Sketchfab-12.67.0",
    "version": "2.0"
  },
  "bufferViews": [
    {
      "buffer": 0,
      "byteLength": 420288,
      "name": "floatBufferViews",
      "target": 34963
    },
    {
      "buffer": 0,
      "byteLength": 164632,
      "byteOffset": 420288,
      "byteStride": 8,
      "name": "floatBufferViews",
      "target": 34962
    },
    {
      "buffer": 0,
      "byteLength": 493896,
      "byteOffset": 584920,
      "byteStride": 12,
      "name": "floatBufferViews",
      "target": 34962
    },
    {
      "buffer": 0,
      "byteLength": 329264,
      "byteOffset": 1078816,
      "byteStride": 16,
      "name": "floatBufferViews",
      "target": 34962
    }
  ],
  "buffers": [
    {
      "byteLength": 1408080,
      "uri": "scene.bin"
    }
  ],
  "images": [
    {
      "uri": "textures/canguro_baseColor.jpeg"
    },
    {
      "uri": "textures/canguro_metallicRoughness.png"
    },
    {
      "uri": "textures/canguro_normal.jpeg"
    }
  ],
  "materials": [
    {
      "doubleSided": true,
      "name": "canguro",
      "normalTexture": {
        "index": 2
      },
      "occlusionTexture": {
        "index": 1
      },
      "pbrMetallicRoughness": {
        "baseColorTexture": {
          "index": 0
        },
        "metallicFactor": 0.0,
        "metallicRoughnessTexture": {
          "index": 1
        },
        "roughnessFactor": 0.0
      }
    }
  ],
  "meshes": [
    {
      "name": "Object_0",
      "primitives": [
        {
          "attributes": {
            "NORMAL": 1,
            "POSITION": 0,
            "TANGENT": 2,
            "TEXCOORD_0": 3
          },
          "indices": 4,
          "material": 0,
          "mode": 4
        }
      ]
    }
  ],
  "nodes": [
    {
      "children": [
        1
      ],
      "matrix": [
        1.0,
        0.0,
        0.0,
        0.0,
        0.0,
        -1.0,
        -4.440892098500626e-16,
        0.0,
        0.0,
        4.440892098500626e-16,
        -1.0,
        0.0,
        0.0,
        -5.960464477539072e-07,
        4.410743713378906e-06,
        1.0
      ],
      "name": "Sketchfab_model"
    },
    {
      "children": [
        2
      ],
      "name": "canguro.obj.cleaner.materialmerger.gles"
    },
    {
      "mesh": 0,
      "name": "Object_2"
    }
  ],
  "samplers": [
    {
      "magFilter": 9729,
      "minFilter": 9987,
      "wrapS": 10497,
      "wrapT": 10497
    }
  ],
  "scene": 0,
  "scenes": [
    {
      "name": "Sketchfab_Scene",
      "nodes": [
        0
      ]
    }
  ],
  "textures": [
    {
      "sampler": 0,
      "source": 0
    },
    {
      "sampler": 0,
      "source": 1
    },
    {
      "sampler": 0,
      "source": 2
    }
  ]
}
