{
  "accessors": [
    {
      "bufferView": 2,
      "componentType": 5126,
      "count": 10035,
      "max": [
        48.20659637451172,
        -9.553494453430176,
        79.41511535644531
      ],
      "min": [
        -48.20687484741211,
        -84.72341918945313,
        55.788047790527344
      ],
      "type": "VEC3"
    },
    {
      "bufferView": 2,
      "byteOffset": 120420,
      "componentType": 5126,
      "count": 10035,
      "max": [
        0.9990251064300537,
        0.9995667338371277,
        0.9995197653770447
      ],
      "min": [
        -0.9990130066871643,
        -0.9998138546943665,
        -0.9998393654823303
      ],
      "type": "VEC3"
    },
    {
      "bufferView": 3,
      "componentType": 5126,
      "count": 10035,
      "max": [
        1.0,
        0.9988041520118713,
        0.8927785158157349,
        1.0
      ],
      "min": [
        -1.0,
        -0.9998342990875244,
        -0.8927733302116394,
        1.0
      ],
      "type": "VEC4"
    },
    {
      "bufferView": 1,
      "componentType": 5126,
      "count": 10035,
      "max": [
        0.6443549990653992,
        0.24703900516033173
      ],
      "min": [
        0.2740100026130676,
        0.0037799999117851257
      ],
      "type": "VEC2"
    },
    {
      "bufferView": 0,
      "componentType": 5125,
      "count": 58368,
      "type": "SCALAR"
    },
    {
      "bufferView": 2,
      "byteOffset": 240840,
      "componentType": 5126,
      "count": 3336,
      "max": [
        49.33561325073242,
        -20.809274673461914,
        79.20325469970703
      ],
      "min": [
        -49.33561706542969,
        -27.630420684814453,
        67.21869659423828
      ],
      "type": "VEC3"
    },
    {
      "bufferView": 2,
      "byteOffset": 280872,
      "componentType": 5126,
      "count": 3336,
      "max": [
        0.9996117353439331,
        0.9908023476600647,
        0.9995459914207458
      ],
      "min": [
        -0.9996117353439331,
        -0.9917673468589783,
        -0.9992523789405823
      ],
      "type": "VEC3"
    },
    {
      "bufferView": 3,
      "byteOffset": 160560,
      "componentType": 5126,
      "count": 3336,
      "max": [
        0.9938499927520752,
        0.9963319897651672,
        0.9896846413612366,
        1.0
      ],
      "min": [
        -0.9985955953598022,
        -0.9963372349739075,
        -0.989719569683075,
        1.0
      ],
      "type": "VEC4"
    },
    {
      "bufferView": 1,
      "byteOffset": 80280,
      "componentType": 5126,
      "count": 3336,
      "max": [
        0.13598400354385376,
        0.9814590215682983
      ],
      "min": [
        0.0036929999478161335,
        0.7057009935379028
      ],
      "type": "VEC2"
    },
    {
      "bufferView": 0,
      "byteOffset": 233472,
      "componentType": 5125,
      "count": 18432,
      "type": "SCALAR"
    },
    {
      "bufferView": 2,
      "byteOffset": 320904,
      "componentType": 5126,
      "count": 12909,
      "max": [
        51.44198226928711,
        70.25326538085938,
        94.78392791748047
      ],
      "min": [
        -51.5025634765625,
        -52.165916442871094,
        48.34064865112305
      ],
      "type": "VEC3"
    },
    {
      "bufferView": 2,
      "byteOffset": 475812,
      "componentType": 5126,
      "count": 12909,
      "max": [
        0.9994266629219055,
        0.9993720054626465,
        0.9999979734420776
      ],
      "min": [
        -0.9993429780006409,
        -0.9999449849128723,
        -0.9997817873954773
      ],
      "type": "VEC3"
    },
    {
      "bufferView": 3,
      "byteOffset": 213936,
      "componentType": 5126,
      "count": 12909,
      "max": [
        0.9999702572822571,
        0.9999071359634399,
        0.9999914765357971,
        1.0
      ],
      "min": [
        -0.9999328851699829,
        -0.9999684691429138,
        -0.9999620914459229,
        1.0
      ],
      "type": "VEC4"
    },
    {
      "bufferView": 1,
      "byteOffset": 106968,
      "componentType": 5126,
      "count": 12909,
      "max": [
        0.274617999792099,
        0.8128190040588379
      ],
      "min": [
        0.1482439935207367,
        0.14366300404071808
      ],
      "type": "VEC2"
    },
    {
      "bufferView": 0,
      "byteOffset": 307200,
      "componentType": 5125,
      "count": 76032,
      "type": "SCALAR"
    },
    {
      "bufferView": 2,
      "byteOffset": 630720,
      "componentType": 5126,
      "count": 16312,
      "max": [
        52.85886764526367,
        -3.7532880306243896,
        85.78657531738281
      ],
      "min": [
        -52.847137451171875,
        -59.367340087890625,
        63.865509033203125
      ],
      "type": "VEC3"
    },
    {
      "bufferView": 2,
      "byteOffset": 826464,
      "componentType": 5126,
      "count": 16312,
      "max": [
        0.9999884963035583,
        0.9999792575836182,
        0.9999986290931702
      ],
      "min": [
        -0.9999895095825195,
        -0.9995134472846985,
        -0.9998997449874878
      ],
      "type": "VEC3"
    },
    {
      "bufferView": 3,
      "byteOffset": 420480,
      "componentType": 5126,
      "count": 16312,
      "max": [
        0.9997119307518005,
        0.999899685382843,
        0.906726598739624,
        1.0
      ],
      "min": [
        -0.999639093875885,
        -0.9999538660049438,
        -0.9999788999557495,
        1.0
      ],
      "type": "VEC4"
    },
    {
      "bufferView": 1,
      "byteOffset": 210240,
      "componentType": 5126,
      "count": 16312,
      "max": [
        0.49596598744392395,
        0.9978370070457458
      ],
      "min": [
        0.33198899030685425,
        0.5712270140647888
      ],
      "type": "VEC2"
    },
    {
      "bufferView": 0,
      "byteOffset": 611328,
      "componentType": 5125,
      "count": 95232,
      "type": "SCALAR"
    },
    {
      "bufferView": 2,
      "byteOffset": 1022208,
      "componentType": 5126,
      "count": 27332,
      "max": [
        69.2850341796875,
        90.32937622070313,
        138.34426879882813
      ],
      "min": [
        -69.36970520019531,
        -56.66168975830078,
        47.830810546875
      ],
      "type": "VEC3"
    },
    {
      "bufferView": 2,
      "byteOffset": 1350192,
      "componentType": 5126,
      "count": 27332,
      "max": [
        0.9998547434806824,
        0.9995778799057007,
        0.9999716281890869
      ],
      "min": [
        -0.9999717473983765,
        -0.9999821186065674,
        -0.9999736547470093
      ],
      "type": "VEC3"
    },
    {
      "bufferView": 3,
      "byteOffset": 681472,
      "componentType": 5126,
      "count": 27332,
      "max": [
        0.9999555349349976,
        0.9977250695228577,
        0.9999845027923584,
        1.0
      ],
      "min": [
        -0.9999082684516907,
        -0.9999716281890869,
        -0.9999973773956299,
        1.0
      ],
      "type": "VEC4"
    },
    {
      "bufferView": 1,
      "byteOffset": 340736,
      "componentType": 5126,
      "count": 27332,
      "max": [
        0.9956290125846863,
        0.9958750009536743
      ],
      "min": [
        0.0029180001001805067,
        0.00343300006352365
      ],
      "type": "VEC2"
    },
    {
      "bufferView": 0,
      "byteOffset": 992256,
      "componentType": 5125,
      "count": 160512,
      "type": "SCALAR"
    },
    {
      "bufferView": 2,
      "byteOffset": 1678176,
      "componentType": 5126,
      "count": 9220,
      "max": [
        54.51283645629883,
        -3.8261330127716064,
        73.62224578857422
      ],
      "min": [
        -54.51283264160156,
        -13.297788619995117,
        64.14138793945313
      ],
      "type": "VEC3"
    },
    {
      "bufferView": 2,
      "byteOffset": 1788816,
      "componentType": 5126,
      "count": 9220,
      "max": [
        0.9967929720878601,
        0.9999112486839294,
        0.9997533559799194
      ],
      "min": [
        -0.9967922568321228,
        -0.9998819828033447,
        -0.9997479915618896
      ],
      "type": "VEC3"
    },
    {
      "bufferView": 3,
      "byteOffset": 1118784,
      "componentType": 5126,
      "count": 9220,
      "max": [
        0.9998614192008972,
        0.9904834628105164,
        0.9109342694282532,
        1.0
      ],
      "min": [
        -0.9999938607215881,
        -0.9995605945587158,
        -0.6128754019737244,
        1.0
      ],
      "type": "VEC4"
    },
    {
      "bufferView": 1,
      "byteOffset": 559392,
      "componentType": 5126,
      "count": 9220,
      "max": [
        0.8672299981117249,
        0.21356700360774994
      ],
      "min": [
        0.007860999554395676,
        0.005111000034958124
      ],
      "type": "VEC2"
    },
    {
      "bufferView": 0,
      "byteOffset": 1634304,
      "componentType": 5125,
      "count": 53760,
      "type": "SCALAR"
    }
  ],
  "asset": {
    "extras": {
      "author": "aSocialCrab (https://sketchfab.com/aSocialCrab)",
      "license": "CC-BY-4.0 (http://creativecommons.org/licenses/by/4.0/)",
      "source": "https://sketchfab.com/3d-models/military-hat-6d1a59873e34488e8ea0bc7732afd7d1",
      "title": "Military Hat"
    },
    "generator": "Sketchfab-16.14.0",
    "version": "2.0"
  },
  "bufferViews": [
    {
      "buffer": 0,
      "byteLength": 1849344,
      "name": "floatBufferViews",
      "target": 34963
    },
    {
      "buffer": 0,
      "byteLength": 633152,
      "byteOffset": 1849344,
      "byteStride": 8,
      "name": "floatBufferViews",
      "target": 34962
    },
    {
      "buffer": 0,
      "byteLength": 1899456,
      "byteOffset": 2482496,
      "byteStride": 12,
      "name": "floatBufferViews",
      "target": 34962
    },
    {
      "buffer": 0,
      "byteLength": 1266304,
      "byteOffset": 4381952,
      "byteStride": 16,
      "name": "floatBufferViews",
      "target": 34962
    }
  ],
  "buffers": [
    {
      "byteLength": 5648256,
      "uri": "scene.bin"
    }
  ],
  "images": [
    {
      "uri": "textures/blinn1SG_baseColor.jpeg"
    },
    {
      "uri": "textures/blinn1SG_metallicRoughness.png"
    },
    {
      "uri": "textures/blinn1SG_normal.png"
    }
  ],
  "materials": [
    {
      "doubleSided": true,
      "name": "blinn1SG",
      "normalTexture": {
        "index": 2
      },
      "occlusionTexture": {
        "index": 1
      },
      "pbrMetallicRoughness": {
        "baseColorTexture": {
          "index": 0
        },
        "metallicRoughnessTexture": {
          "index": 1
        }
      }
    }
  ],
  "meshes": [
    {
      "name": "Object_0",
      "primitives": [
        {
          "attributes": {
            "NORMAL": 1,
            "POSITION": 0,
            "TANGENT": 2,
            "TEXCOORD_0": 3
          },
          "indices": 4,
          "material": 0,
          "mode": 4
        }
      ]
    },
    {
      "name": "Object_1",
      "primitives": [
        {
          "attributes": {
            "NORMAL": 6,
            "POSITION": 5,
            "TANGENT": 7,
            "TEXCOORD_0": 8
          },
          "indices": 9,
          "material": 0,
          "mode": 4
        }
      ]
    },
    {
      "name": "Object_2",
      "primitives": [
        {
          "attributes": {
            "NORMAL": 11,
            "POSITION": 10,
            "TANGENT": 12,
            "TEXCOORD_0": 13
          },
          "indices": 14,
          "material": 0,
          "mode": 4
        }
      ]
    },
    {
      "name": "Object_3",
      "primitives": [
        {
          "attributes": {
            "NORMAL": 16,
            "POSITION": 15,
            "TANGENT": 17,
            "TEXCOORD_0": 18
          },
          "indices": 19,
          "material": 0,
          "mode": 4
        }
      ]
    },
    {
      "name": "Object_4",
      "primitives": [
        {
          "attributes": {
            "NORMAL": 21,
            "POSITION": 20,
            "TANGENT": 22,
            "TEXCOORD_0": 23
          },
          "indices": 24,
          "material": 0,
          "mode": 4
        }
      ]
    },
    {
      "name": "Object_5",
      "primitives": [
        {
          "attributes": {
            "NORMAL": 26,
            "POSITION": 25,
            "TANGENT": 27,
            "TEXCOORD_0": 28
          },
          "indices": 29,
          "material": 0,
          "mode": 4
        }
      ]
    }
  ],
  "nodes": [
    {
      "children": [
        1
      ],
      "matrix": [
        1.0,
        0.0,
        0.0,
        0.0,
        0.0,
        2.220446049250313e-16,
        -1.0,
        0.0,
        0.0,
        1.0,
        2.220446049250313e-16,
        0.0,
        0.0,
        0.0,
        0.0,
        1.0
      ],
      "name": "Sketchfab_model"
    },
    {
      "children": [
        2,
        3,
        4,
        5,
        6,
        7
      ],
      "name": "Military_Hat.obj.cleaner.materialmerger.gles"
    },
    {
      "mesh": 0,
      "name": "Object_2"
    },
    {
      "mesh": 1,
      "name": "Object_3"
    },
    {
      "mesh": 2,
      "name": "Object_4"
    },
    {
      "mesh": 3,
      "name": "Object_5"
    },
    {
      "mesh": 4,
      "name": "Object_6"
    },
    {
      "mesh": 5,
      "name": "Object_7"
    }
  ],
  "samplers": [
    {
      "magFilter": 9729,
      "minFilter": 9987,
      "wrapS": 10497,
      "wrapT": 10497
    }
  ],
  "scene": 0,
  "scenes": [
    {
      "name": "Sketchfab_Scene",
      "nodes": [
        0
      ]
    }
  ],
  "textures": [
    {
      "sampler": 0,
      "source": 0
    },
    {
      "sampler": 0,
      "source": 1
    },
    {
      "sampler": 0,
      "source": 2
    }
  ]
}
