{
  "accessors": [
    {
      "bufferView": 2,
      "componentType": 5126,
      "count": 5214,
      "max": [
        0.41975006461143494,
        0.08531978726387024,
        0.07972650229930878
      ],
      "min": [
        -0.3590490520000458,
        -0.06256949156522751,
        -0.07988377660512924
      ],
      "type": "VEC3"
    },
    {
      "bufferView": 2,
      "byteOffset": 62568,
      "componentType": 5126,
      "count": 5214,
      "max": [
        1.0,
        1.0,
        0.9987004995346069
      ],
      "min": [
        -1.0,
        -1.0,
        -0.9987097382545471
      ],
      "type": "VEC3"
    },
    {
      "bufferView": 3,
      "componentType": 5126,
      "count": 5214,
      "max": [
        0.9999992251396179,
        0.9997304677963257,
        0.9999988079071045,
        1.0
      ],
      "min": [
        -0.9999944567680359,
        -0.9997981786727905,
        -1.0,
        -1.0
      ],
      "type": "VEC4"
    },
    {
      "bufferView": 1,
      "componentType": 5126,
      "count": 5214,
      "max": [
        0.9713990092277527,
        0.9848045706748962
      ],
      "min": [
        0.018826289102435112,
        0.007481149397790432
      ],
      "type": "VEC2"
    },
    {
      "bufferView": 1,
      "byteOffset": 41712,
      "componentType": 5126,
      "count": 5214,
      "max": [
        0.9713990092277527,
        0.9848045706748962
      ],
      "min": [
        0.018826289102435112,
        0.007481149397790432
      ],
      "type": "VEC2"
    },
    {
      "bufferView": 1,
      "byteOffset": 83424,
      "componentType": 5126,
      "count": 5214,
      "max": [
        0.9713990092277527,
        0.9848045706748962
      ],
      "min": [
        0.018826289102435112,
        0.007481149397790432
      ],
      "type": "VEC2"
    },
    {
      "bufferView": 0,
      "componentType": 5125,
      "count": 22428,
      "type": "SCALAR"
    }
  ],
  "asset": {
    "extras": {
      "author": "Glowbox 3D (https://sketchfab.com/glowbox3d)",
      "license": "CC-BY-4.0 (http://creativecommons.org/licenses/by/4.0/)",
      "source": "https://sketchfab.com/3d-models/nail-bat-nailed-nightmare-2903f169b773436b8e0257c7048f3599",
      "title": "Nail Bat -- \"Nailed Nightmare\" 🧟"
    },
    "generator": "Sketchfab-15.55.0",
    "version": "2.0"
  },
  "bufferViews": [
    {
      "buffer": 0,
      "byteLength": 89712,
      "name": "floatBufferViews",
      "target": 34963
    },
    {
      "buffer": 0,
      "byteLength": 125136,
      "byteOffset": 89712,
      "byteStride": 8,
      "name": "floatBufferViews",
      "target": 34962
    },
    {
      "buffer": 0,
      "byteLength": 125136,
      "byteOffset": 214848,
      "byteStride": 12,
      "name": "floatBufferViews",
      "target": 34962
    },
    {
      "buffer": 0,
      "byteLength": 83424,
      "byteOffset": 339984,
      "byteStride": 16,
      "name": "floatBufferViews",
      "target": 34962
    }
  ],
  "buffers": [
    {
      "byteLength": 423408,
      "uri": "scene.bin"
    }
  ],
  "images": [
    {
      "uri": "textures/M_NailBat_baseColor.png"
    },
    {
      "uri": "textures/M_NailBat_metallicRoughness.png"
    },
    {
      "uri": "textures/M_NailBat_normal.png"
    }
  ],
  "materials": [
    {
      "doubleSided": true,
      "name": "M_NailBat",
      "normalTexture": {
        "index": 2
      },
      "pbrMetallicRoughness": {
        "baseColorTexture": {
          "index": 0
        },
        "metallicRoughnessTexture": {
          "index": 1
        }
      }
    }
  ],
  "meshes": [
    {
      "name": "Cylinder_M_NailBat_0",
      "primitives": [
        {
          "attributes": {
            "NORMAL": 1,
            "POSITION": 0,
            "TANGENT": 2,
            "TEXCOORD_0": 3,
            "TEXCOORD_1": 4,
            "TEXCOORD_2": 5
          },
          "indices": 6,
          "material": 0,
          "mode": 4
        }
      ]
    }
  ],
  "nodes": [
    {
      "children": [
        1
      ],
      "matrix": [
        1.0,
        0.0,
        0.0,
        0.0,
        0.0,
        2.220446049250313e-16,
        -1.0,
        0.0,
        0.0,
        1.0,
        2.220446049250313e-16,
        0.0,
        0.0,
        0.0,
        0.0,
        1.0
      ],
      "name": "Sketchfab_model"
    },
    {
      "children": [
        2
      ],
      "matrix": [
        0.009999999776482582,
        0.0,
        0.0,
        0.0,
        0.0,
        0.0,
        0.009999999776482582,
        0.0,
        0.0,
        -0.009999999776482582,
        0.0,
        0.0,
        0.0,
        0.0,
        0.0,
        1.0
      ],
      "name": "0b2dda0d3bcc498cb04405936576040f.fbx"
    },
    {
      "children": [
        3
      ],
      "name": "RootNode"
    },
    {
      "children": [
        4
      ],
      "matrix": [
        100.0,
        0.0,
        0.0,
        0.0,
        0.0,
        -1.629206793918314e-05,
        -99.99999999999868,
        0.0,
        0.0,
        99.99999999999868,
        -1.629206793918314e-05,
        0.0,
        0.0,
        0.0,
        0.0,
        1.0
      ],
      "name": "Cylinder"
    },
    {
      "mesh": 0,
      "name": "Cylinder_M_NailBat_0"
    }
  ],
  "samplers": [
    {
      "magFilter": 9729,
      "minFilter": 9987,
      "wrapS": 10497,
      "wrapT": 10497
    }
  ],
  "scene": 0,
  "scenes": [
    {
      "name": "Sketchfab_Scene",
      "nodes": [
        0
      ]
    }
  ],
  "textures": [
    {
      "sampler": 0,
      "source": 0
    },
    {
      "sampler": 0,
      "source": 1
    },
    {
      "sampler": 0,
      "source": 2
    }
  ]
}
