{
  "accessors": [
    {
      "bufferView": 2,
      "componentType": 5126,
      "count": 2162,
      "max": [
        4.999998569488525,
        57.776607513427734,
        107.6577377319336
      ],
      "min": [
        -4.999998569488525,
        -58.729408264160156,
        -268.94189453125
      ],
      "type": "VEC3"
    },
    {
      "bufferView": 2,
      "byteOffset": 25944,
      "componentType": 5126,
      "count": 2162,
      "max": [
        1.0,
        0.9999404549598694,
        0.9982798099517822
      ],
      "min": [
        -1.0,
        -0.999998927116394,
        -1.0
      ],
      "type": "VEC3"
    },
    {
      "bufferView": 3,
      "componentType": 5126,
      "count": 2162,
      "max": [
        1.0,
        0.9999945759773254,
        0.9999991059303284,
        1.0
      ],
      "min": [
        -0.9999919533729553,
        -0.9987797737121582,
        -0.9999983906745911,
        -1.0
      ],
      "type": "VEC4"
    },
    {
      "bufferView": 1,
      "componentType": 5126,
      "count": 2162,
      "max": [
        0.911503791809082,
        0.9999185800552368
      ],
      "min": [
        8.14187660580501e-05,
        0.004108309745788574
      ],
      "type": "VEC2"
    },
    {
      "bufferView": 0,
      "componentType": 5125,
      "count": 10026,
      "type": "SCALAR"
    },
    {
      "bufferView": 2,
      "byteOffset": 51888,
      "componentType": 5126,
      "count": 936,
      "max": [
        2.5,
        25.234352111816406,
        87.8471908569336
      ],
      "min": [
        -11.875513076782227,
        -22.96127700805664,
        -90.35395050048828
      ],
      "type": "VEC3"
    },
    {
      "bufferView": 2,
      "byteOffset": 63120,
      "componentType": 5126,
      "count": 936,
      "max": [
        1.0,
        0.9740287065505981,
        0.9984976649284363
      ],
      "min": [
        -1.0,
        -0.9753319025039673,
        -0.9940536618232727
      ],
      "type": "VEC3"
    },
    {
      "bufferView": 3,
      "byteOffset": 34592,
      "componentType": 5126,
      "count": 936,
      "max": [
        0.995884358882904,
        0.9999992847442627,
        0.8879581093788147,
        1.0
      ],
      "min": [
        -0.9937209486961365,
        -0.8189604878425598,
        -1.0,
        -1.0
      ],
      "type": "VEC4"
    },
    {
      "bufferView": 1,
      "byteOffset": 17296,
      "componentType": 5126,
      "count": 936,
      "max": [
        0.9404644966125488,
        0.9999185800552368
      ],
      "min": [
        8.14187660580501e-05,
        0.000244140625
      ],
      "type": "VEC2"
    },
    {
      "bufferView": 0,
      "byteOffset": 40104,
      "componentType": 5125,
      "count": 4464,
      "type": "SCALAR"
    }
  ],
  "asset": {
    "extras": {
      "author": "Mustafa Özgen (https://sketchfab.com/mustafaozgen)",
      "license": "CC-BY-4.0 (http://creativecommons.org/licenses/by/4.0/)",
      "source": "https://sketchfab.com/3d-models/3d-pbr-bloody-cleaver-324e3febdbc74b29a506760d6edb85dd",
      "title": "3D PBR Bloody Cleaver"
    },
    "generator": "Sketchfab-12.68.0",
    "version": "2.0"
  },
  "bufferViews": [
    {
      "buffer": 0,
      "byteLength": 57960,
      "name": "floatBufferViews",
      "target": 34963
    },
    {
      "buffer": 0,
      "byteLength": 24784,
      "byteOffset": 57960,
      "byteStride": 8,
      "name": "floatBufferViews",
      "target": 34962
    },
    {
      "buffer": 0,
      "byteLength": 74352,
      "byteOffset": 82744,
      "byteStride": 12,
      "name": "floatBufferViews",
      "target": 34962
    },
    {
      "buffer": 0,
      "byteLength": 49568,
      "byteOffset": 157096,
      "byteStride": 16,
      "name": "floatBufferViews",
      "target": 34962
    }
  ],
  "buffers": [
    {
      "byteLength": 206664,
      "uri": "scene.bin"
    }
  ],
  "images": [
    {
      "uri": "textures/Cleaver_baseColor.png"
    },
    {
      "uri": "textures/Cleaver_metallicRoughness.png"
    },
    {
      "uri": "textures/Cleaver_normal.png"
    }
  ],
  "materials": [
    {
      "doubleSided": true,
      "name": "Cleaver",
      "normalTexture": {
        "index": 2
      },
      "occlusionTexture": {
        "index": 1
      },
      "pbrMetallicRoughness": {
        "baseColorTexture": {
          "index": 0
        },
        "metallicRoughnessTexture": {
          "index": 1
        }
      }
    }
  ],
  "meshes": [
    {
      "name": "Demir_Cleaver_0",
      "primitives": [
        {
          "attributes": {
            "NORMAL": 1,
            "POSITION": 0,
            "TANGENT": 2,
            "TEXCOORD_0": 3
          },
          "indices": 4,
          "material": 0,
          "mode": 4
        }
      ]
    },
    {
      "name": "Kulp_Cleaver_0",
      "primitives": [
        {
          "attributes": {
            "NORMAL": 6,
            "POSITION": 5,
            "TANGENT": 7,
            "TEXCOORD_0": 8
          },
          "indices": 9,
          "material": 0,
          "mode": 4
        }
      ]
    }
  ],
  "nodes": [
    {
      "children": [
        1
      ],
      "matrix": [
        1.0,
        0.0,
        0.0,
        0.0,
        0.0,
        2.220446049250313e-16,
        -1.0,
        0.0,
        0.0,
        1.0,
        2.220446049250313e-16,
        0.0,
        0.0,
        0.0,
        0.0,
        1.0
      ],
      "name": "Sketchfab_model"
    },
    {
      "children": [
        2
      ],
      "matrix": [
        1.0,
        0.0,
        0.0,
        0.0,
        0.0,
        0.0,
        1.0,
        0.0,
        0.0,
        -1.0,
        0.0,
        0.0,
        0.0,
        0.0,
        0.0,
        1.0
      ],
      "name": "51c1cea80c694899a75004970e67f2ed.fbx"
    },
    {
      "children": [
        3
      ],
      "name": "RootNode"
    },
    {
      "children": [
        4,
        6
      ],
      "matrix": [
        1.0,
        0.0,
        0.0,
        0.0,
        0.0,
        1.0,
        0.0,
        0.0,
        0.0,
        0.0,
        1.0,
        0.0,
        2.3438782691955566,
        16.484201431274414,
        -89.95745849609375,
        1.0
      ],
      "name": "Null"
    },
    {
      "children": [
        5
      ],
      "matrix": [
        1.0,
        0.0,
        0.0,
        0.0,
        0.0,
        1.0,
        0.0,
        0.0,
        0.0,
        0.0,
        1.0,
        0.0,
        -2.3438782691955566,
        -16.484201431274414,
        89.95745849609375,
        1.0
      ],
      "name": "Demir"
    },
    {
      "mesh": 0,
      "name": "Demir_Cleaver_0"
    },
    {
      "children": [
        7
      ],
      "matrix": [
        1.0,
        0.0,
        0.0,
        0.0,
        0.0,
        1.0,
        0.0,
        0.0,
        0.0,
        0.0,
        1.0,
        0.0,
        2.3438782691955566,
        16.484201431274414,
        -89.95745849609375,
        1.0
      ],
      "name": "Kulp"
    },
    {
      "mesh": 1,
      "name": "Kulp_Cleaver_0"
    }
  ],
  "samplers": [
    {
      "magFilter": 9729,
      "minFilter": 9987,
      "wrapS": 10497,
      "wrapT": 10497
    }
  ],
  "scene": 0,
  "scenes": [
    {
      "name": "Sketchfab_Scene",
      "nodes": [
        0
      ]
    }
  ],
  "textures": [
    {
      "sampler": 0,
      "source": 0
    },
    {
      "sampler": 0,
      "source": 1
    },
    {
      "sampler": 0,
      "source": 2
    }
  ]
}
