{
  "accessors": [
    {
      "bufferView": 2,
      "componentType": 5126,
      "count": 7275,
      "max": [
        5.8044352531433105,
        14.618348121643066,
        4.170374870300293
      ],
      "min": [
        -6.991250038146973,
        -0.04674438387155533,
        -4.528933048248291
      ],
      "type": "VEC3"
    },
    {
      "bufferView": 2,
      "byteOffset": 87300,
      "componentType": 5126,
      "count": 7275,
      "max": [
        0.9957889914512634,
        1.0,
        0.9971968531608582
      ],
      "min": [
        -0.9987648129463196,
        -1.0,
        -0.9996908903121948
      ],
      "type": "VEC3"
    },
    {
      "bufferView": 1,
      "componentType": 5126,
      "count": 7275,
      "max": [
        1.0,
        1.0
      ],
      "min": [
        0.0,
        0.0
      ],
      "type": "VEC2"
    },
    {
      "bufferView": 0,
      "componentType": 5125,
      "count": 12525,
      "type": "SCALAR"
    }
  ],
  "asset": {
    "extras": {
      "author": "okanguclu4141 (https://sketchfab.com/okanguclu4141)",
      "license": "CC-BY-4.0 (http://creativecommons.org/licenses/by/4.0/)",
      "source": "https://sketchfab.com/3d-models/broken-glass-pieces-2a760b58237745f7b5b6d3461063f245",
      "title": "Broken Glass Pieces"
    },
    "generator": "Sketchfab-15.49.0",
    "version": "2.0"
  },
  "bufferViews": [
    {
      "buffer": 0,
      "byteLength": 50100,
      "name": "floatBufferViews",
      "target": 34963
    },
    {
      "buffer": 0,
      "byteLength": 58200,
      "byteOffset": 50100,
      "byteStride": 8,
      "name": "floatBufferViews",
      "target": 34962
    },
    {
      "buffer": 0,
      "byteLength": 174600,
      "byteOffset": 108300,
      "byteStride": 12,
      "name": "floatBufferViews",
      "target": 34962
    }
  ],
  "buffers": [
    {
      "byteLength": 282900,
      "uri": "scene.bin"
    }
  ],
  "materials": [
    {
      "doubleSided": true,
      "name": "Material",
      "pbrMetallicRoughness": {
        "baseColorFactor": [
          0.8,
          0.8,
          0.8,
          1.0
        ],
        "metallicFactor": 0.0,
        "roughnessFactor": 0.8211145618000169
      }
    }
  ],
  "meshes": [
    {
      "name": "Cube_cell.002_cell.004_cell.005_Material_0",
      "primitives": [
        {
          "attributes": {
            "NORMAL": 1,
            "POSITION": 0,
            "TEXCOORD_0": 2
          },
          "indices": 3,
          "material": 0,
          "mode": 4
        }
      ]
    }
  ],
  "nodes": [
    {
      "children": [
        1
      ],
      "matrix": [
        1.0,
        0.0,
        0.0,
        0.0,
        0.0,
        2.220446049250313e-16,
        -1.0,
        0.0,
        0.0,
        1.0,
        2.220446049250313e-16,
        0.0,
        0.0,
        0.0,
        0.0,
        1.0
      ],
      "name": "Sketchfab_model"
    },
    {
      "children": [
        2
      ],
      "matrix": [
        0.009999999776482582,
        0.0,
        0.0,
        0.0,
        0.0,
        0.0,
        0.009999999776482582,
        0.0,
        0.0,
        -0.009999999776482582,
        0.0,
        0.0,
        0.0,
        0.0,
        0.0,
        1.0
      ],
      "name": "Glass.fbx"
    },
    {
      "children": [
        3
      ],
      "name": "RootNode"
    },
    {
      "children": [
        4
      ],
      "matrix": [
        57.82954788208008,
        0.0,
        0.0,
        0.0,
        0.0,
        -14.789215642076456,
        0.12381087237348366,
        0.0,
        0.0,
        -0.7439401455041573,
        -88.86369206308136,
        0.0,
        -0.47887861728668213,
        -14.39332389831543,
        -102.17404174804688,
        1.0
      ],
      "name": "Cube_cell.002_cell.004_cell.005"
    },
    {
      "mesh": 0,
      "name": "Cube_cell.002_cell.004_cell.005_Material_0"
    }
  ],
  "scene": 0,
  "scenes": [
    {
      "name": "Sketchfab_Scene",
      "nodes": [
        0
      ]
    }
  ]
}
